<svg width="70" height="71" viewBox="0 0 70 71" fill="none" xmlns="http://www.w3.org/2000/svg">
<g clip-path="url(#clip0_2:514)">
<path fill-rule="evenodd" clip-rule="evenodd" d="M40.4852 15.9759L69.5475 27.0534L69.483 43.7668C69.483 45.4511 68.7725 47.1354 67.0934 48.431L40.679 69.0313C37.5144 71.4929 32.4769 71.5577 29.4415 69.1608L2.6396 48.3015C1.15419 47.1354 0.443779 45.5807 0.379196 44.0907L0.250031 26.6L29.2478 16.0407C32.9936 14.7451 36.8686 14.5508 40.4852 15.9759Z" fill="#325651"/>
<path fill-rule="evenodd" clip-rule="evenodd" d="M40.6789 52.1883C37.5144 54.6499 32.4769 54.7147 29.4415 52.3178L5.54581 33.7258L5.67497 43.9611C5.73956 44.0259 5.80414 44.0907 5.86872 44.1555L32.6061 64.9501C33.8331 65.857 36.2227 65.7274 37.4498 64.8205L63.8642 44.285C64.058 44.1555 64.2517 43.9611 64.2517 43.702L64.3163 33.7258L40.6789 52.1883Z" fill="white"/>
<path fill-rule="evenodd" clip-rule="evenodd" d="M40.4847 2.11249L67.222 22.9071C70.2574 25.304 70.1928 29.1908 67.0283 31.6525L40.6784 52.1879C37.5139 54.6496 32.4764 54.7144 29.441 52.3175L2.63906 31.5229C-0.396335 29.126 -0.331752 25.2392 2.83281 22.7775L29.2472 2.24205C32.3472 -0.219616 37.4493 -0.284396 40.4847 2.11249Z" fill="#325651"/>
<path fill-rule="evenodd" clip-rule="evenodd" d="M38.0956 8.13753L57.7288 23.1666C58.7621 23.944 58.7621 25.3044 57.6642 26.1465L48.6872 33.0781C47.6539 33.9202 45.9101 33.9202 44.8768 33.1429L25.2436 18.1137C24.2103 17.3364 24.2102 15.976 25.3082 15.1338L34.2852 8.13753C35.3185 7.36016 37.0623 7.29538 38.0956 8.13753Z" fill="white"/>
<path fill-rule="evenodd" clip-rule="evenodd" d="M66.3185 36.4466C66.8351 36.0579 67.5456 36.1227 67.9331 36.6409C68.3205 37.1592 68.256 37.8718 67.7393 38.2604L41.3895 58.7959C39.6457 60.1563 37.3207 60.8689 35.0603 60.8689C32.7999 60.8689 30.4749 60.2211 28.7312 58.9255L8.32298 43.3133C7.80632 42.9247 7.74173 42.2121 8.12923 41.6938C8.51673 41.1756 9.22714 41.1108 9.74381 41.4995L30.152 57.1116C31.4437 58.1481 33.252 58.6016 35.0603 58.6016C36.8686 58.6016 38.6124 58.0185 39.9686 56.982L66.3185 36.4466Z" fill="#325651"/>
</g>
<defs>
<clipPath id="clip0_2:514">
<rect width="69.2975" height="70.5461" fill="white" transform="translate(0.25 0.363281)"/>
</clipPath>
</defs>
</svg>
