<svg width="197" height="224" viewBox="0 0 197 224" fill="none" xmlns="http://www.w3.org/2000/svg">
<g opacity="0.2">
<g opacity="0.2">
<g opacity="0.2">
<g opacity="0.2">
<path opacity="0.2" d="M98.1863 223.618C152.324 223.618 196.212 216.623 196.212 207.994C196.212 199.365 152.324 192.37 98.1863 192.37C44.0481 192.37 0.160461 199.365 0.160461 207.994C0.160461 216.623 44.0481 223.618 98.1863 223.618Z" fill="#000072"/>
</g>
</g>
</g>
</g>
<path d="M33.8529 179.521C28.5974 178.219 11.1622 161.158 5.43377 164.888C-1.52601 169.421 9.1635 184.215 27.7229 192.388C27.8925 192.459 27.8032 192.709 27.6248 192.665C22.6815 191.424 11.3674 188.364 9.83271 195.261C7.89646 203.943 52.332 203.488 54.7768 201.605" fill="#AD5832"/>
<g opacity="0.3">
<g opacity="0.3">
<g opacity="0.3">
<g opacity="0.3">
<path opacity="0.3" d="M5.43379 168.448C11.1622 164.718 28.5974 181.788 33.8529 183.081L51.6182 201.819C53.3135 201.632 54.4467 201.4 54.7858 201.141L33.8529 179.057C28.5974 177.755 11.1622 160.694 5.43379 164.424C3.39939 165.753 2.87295 167.957 3.62246 170.625C3.95261 169.769 4.55044 169.028 5.43379 168.448Z" fill="white"/>
</g>
</g>
</g>
</g>
<g opacity="0.3">
<g opacity="0.3">
<g opacity="0.3">
<g opacity="0.3">
<path opacity="0.3" d="M28.3119 194.199C28.4904 194.217 28.5439 193.958 28.3744 193.914C24.5376 192.781 20.9774 191.353 17.7741 189.747C14.0354 190.113 10.8232 191.451 10.4842 195.056C10.4038 195.93 10.7608 196.653 11.4657 197.251C13.8124 192.299 23.7345 193.655 28.3119 194.199Z" fill="white"/>
</g>
</g>
</g>
</g>
<g opacity="0.3">
<g opacity="0.3">
<g opacity="0.3">
<g opacity="0.3">
<path opacity="0.3" d="M54.7859 201.596C52.341 203.488 7.90549 203.934 9.84174 195.252C10.4663 192.432 12.7238 191.281 15.5166 190.987C14.9188 197.117 38.0913 198.5 51.4487 198.072L54.7859 201.596Z" fill="#000072"/>
</g>
</g>
</g>
</g>
<path d="M40.9733 204.255C38.7962 204.255 36.851 204.22 35.5126 204.175C28.5082 203.943 15.9806 203.06 10.8589 199.803C8.11066 198.054 8.10174 196.002 8.34265 194.931C8.7531 193.102 9.74353 191.692 11.2783 190.737C13.3126 189.479 16.043 189.229 18.818 189.426C9.15463 183.438 2.27515 175.675 1.7844 169.59C1.57917 167.038 2.57853 164.915 4.59508 163.594C9.13678 160.632 17.4261 166.637 25.4387 172.437C28.9632 174.988 32.6127 177.63 34.2188 178.031C35.0397 178.236 35.5483 179.066 35.343 179.896C35.1378 180.717 34.308 181.225 33.4782 181.02C31.2921 180.476 27.9193 178.031 23.6363 174.935C18.1845 170.973 9.04755 164.361 6.27256 166.173C5.20183 166.869 4.72892 167.913 4.84492 169.34C5.29998 174.971 14.4191 184.848 28.3386 190.978C29.1506 191.335 29.5432 192.236 29.2577 193.066C28.9722 193.905 28.1066 194.369 27.2501 194.155L26.8396 194.048C23.3597 193.173 16.1323 191.344 12.8844 193.343C12.0545 193.851 11.5638 194.565 11.3318 195.582C11.2872 195.779 11.1979 196.189 12.0188 196.858C14.6868 199 22.9939 200.561 34.2455 201.043C44.1588 201.462 52.5908 200.882 53.9203 200.32C54.5895 199.874 55.4907 200.017 55.9904 200.659C56.5079 201.329 56.383 202.292 55.7138 202.819C54.2147 203.979 46.7999 204.255 40.9733 204.255ZM53.8489 200.383C53.84 200.383 53.84 200.383 53.8489 200.383C53.84 200.383 53.84 200.383 53.8489 200.383Z" fill="#000072"/>
<path d="M153.436 111.19C153.436 111.19 169.497 117.178 171.621 143.544C172.174 150.424 171.014 167.386 169.007 173.989C166.767 181.341 162.93 190.755 153.053 195.216" fill="#7F7F7F"/>
<path d="M153.436 111.19C153.436 111.19 169.497 117.178 171.621 143.544C172.174 150.424 171.014 167.386 169.007 173.989C166.767 181.341 162.93 190.755 153.053 195.216" fill="#AD5832"/>
<g opacity="0.3">
<g opacity="0.3">
<g opacity="0.3">
<g opacity="0.3">
<path opacity="0.3" d="M168.953 135.862C163.805 123.263 160.057 120.14 153.579 116.348L153.427 111.19C153.427 111.19 169.488 117.178 171.612 143.544C171.737 144.972 168.98 133.747 168.953 135.862Z" fill="white"/>
</g>
</g>
</g>
</g>
<path d="M153.053 196.751C152.464 196.751 151.91 196.412 151.652 195.85C151.304 195.074 151.643 194.164 152.419 193.816C161.69 189.631 164.483 185.259 166.651 178.156C169.524 168.743 170.675 158.785 170.077 148.568C168.596 123.352 156.756 114.269 156.64 114.18C155.961 113.671 155.819 112.716 156.318 112.029C156.818 111.351 157.782 111.199 158.46 111.699C158.995 112.092 171.576 121.603 173.147 148.39C173.771 158.972 172.576 169.296 169.595 179.057C167.213 186.865 163.974 191.978 153.686 196.626C153.481 196.707 153.267 196.751 153.053 196.751Z" fill="#000072"/>
<path d="M166.999 175.051C166.999 181.761 163.93 187.855 158.549 193.03C158.531 193.048 158.504 193.075 158.487 193.093C147.342 203.764 126.356 210.555 102.139 210.894C101.497 210.903 100.854 210.912 100.203 210.912C75.1744 210.912 53.3582 203.086 41.9192 191.522C41.134 190.728 40.3934 189.952 39.6885 189.176C35.5305 184.616 32.9072 180.28 32.9072 174.516C32.9072 160.739 34.9505 147.819 38.6178 136.237C39.9562 132.016 41.5087 127.974 43.2576 124.129C55.2231 97.8241 76.3612 80.9511 100.203 80.9511C122.911 80.9511 142.97 96.5928 155.033 120.461C155.149 120.684 155.265 120.916 155.373 121.139C156.283 122.969 157.139 124.887 157.96 126.868C163.644 140.707 166.919 157.875 166.99 174.542V174.614C166.999 174.748 166.999 174.899 166.999 175.051Z" fill="#AD5832"/>
<g opacity="0.3">
<g opacity="0.3">
<g opacity="0.3">
<g opacity="0.3">
<path opacity="0.3" d="M166.767 167.234C166.758 167.083 166.749 166.931 166.74 166.788C166.74 166.779 166.74 166.779 166.74 166.77C166.749 166.922 166.758 167.074 166.767 167.234Z" fill="#000072"/>
</g>
</g>
</g>
</g>
<g opacity="0.3">
<g opacity="0.3">
<g opacity="0.3">
<g opacity="0.3">
<path opacity="0.3" d="M166.999 175.051C166.999 181.761 163.929 187.855 158.549 193.03C163.796 187.739 166.856 181.502 166.999 174.605C166.999 174.748 166.999 174.899 166.999 175.051Z" fill="#000072"/>
</g>
</g>
</g>
</g>
<path d="M166.999 174.533V174.605C166.856 181.493 163.796 187.739 158.549 193.03C158.531 193.048 158.504 193.075 158.487 193.093C147.547 204.068 127.176 210.912 103.834 210.912C103.272 210.912 102.701 210.912 102.139 210.894C97.5439 210.822 93.0735 210.439 88.7728 209.796C61.7367 205.719 45.4794 175.024 55.7495 147.578C55.7941 147.471 55.8298 147.363 55.8744 147.256C59.3275 138.111 65.1273 130.999 72.212 127.207L76.4861 124.923C83.2317 121.327 93.4394 120.863 100.426 123.807L111.008 128.26C114.836 129.875 118.825 130.49 122.76 130.134C126.4 129.794 129.951 128.527 133.271 126.564L142.524 121.086C144.353 120.185 146.164 119.524 147.958 119.096C150.465 118.498 152.999 119.043 155.033 120.452C155.149 120.675 155.265 120.907 155.373 121.13C162.645 135.773 166.919 155.474 166.999 174.533Z" fill="#FCD2AC"/>
<g opacity="0.3">
<g opacity="0.3">
<g opacity="0.3">
<g opacity="0.3">
<path opacity="0.3" d="M166.829 171.036V170.964C166.82 168.127 166.704 165.28 166.517 162.443C165.839 168.145 162.912 173.356 158.219 177.862C158.201 177.879 158.174 177.906 158.156 177.924C147.012 188.596 126.025 195.386 101.809 195.725C101.166 195.734 100.524 195.743 99.8727 195.743C74.8442 195.743 53.028 187.926 41.589 176.354C40.8038 175.559 40.0632 174.783 39.3583 174.007C36.1371 170.473 33.844 167.074 32.9695 163.05C32.8179 165.646 32.7375 168.287 32.7375 170.955C32.7375 176.719 35.3609 181.047 39.5189 185.615C40.2238 186.392 40.9644 187.168 41.7496 187.962C53.1886 199.526 74.9959 207.351 100.033 207.351C100.676 207.351 101.327 207.351 101.97 207.334C126.186 206.994 147.172 200.204 158.317 189.533C158.344 189.515 158.362 189.488 158.379 189.47C163.76 184.295 166.829 178.201 166.829 171.491C166.829 171.33 166.829 171.178 166.829 171.036Z" fill="#000072"/>
</g>
</g>
</g>
</g>
<path d="M102.139 210.894C126.356 210.555 147.342 203.764 158.487 193.093C147.547 204.068 127.176 210.912 103.834 210.912C103.272 210.912 102.701 210.903 102.139 210.894Z" fill="#F8DEC3"/>
<path d="M100.203 212.446C85.1948 212.446 69.9279 209.689 58.3193 204.889C42.8472 198.491 33.5318 188.444 31.3992 175.836C29.4719 164.442 30.7389 151.602 35.0754 138.699C39.171 126.529 45.7471 114.867 54.0988 104.98C67.8221 88.7317 84.6326 79.4074 100.203 79.4074C122.867 79.4074 144.005 94.7457 156.756 120.452C164.135 135.318 168.534 155.724 168.534 175.051C168.534 196.367 139.16 212.446 100.203 212.446ZM100.203 82.4768C85.5338 82.4768 69.5888 91.3996 56.4455 106.961C39.4476 127.082 30.8014 153.913 34.433 175.319C36.4138 186.998 44.8459 195.984 59.4971 202.051C70.7488 206.709 85.5874 209.377 100.203 209.377C118.04 209.377 134.565 205.861 146.717 199.481C158.799 193.137 165.455 184.464 165.455 175.051C165.455 156.179 161.172 136.281 153.998 121.817C141.783 97.1816 121.671 82.4768 100.203 82.4768Z" fill="#000072"/>
<path d="M134.243 21.9535C134.618 21.7037 147.61 7.01676 150.224 3.84025C154.114 -0.888837 159.843 2.04676 157.335 14.9937C157.335 14.9937 163.314 8.5961 165.669 12.7274C169.176 18.8752 159.932 19.4819 167.391 49.2305" fill="#AD5832"/>
<g opacity="0.3">
<g opacity="0.3">
<g opacity="0.3">
<g opacity="0.3">
<path opacity="0.3" d="M164.465 18.1257C161.975 15.7522 155.141 19.125 155.141 19.125C156.024 15.9396 156.756 16.1448 156.666 14.1015C158.719 12.656 164.233 8.42658 165.607 11.3443C166.606 13.4858 165.205 16.0734 164.465 18.1257Z" fill="white"/>
</g>
</g>
</g>
</g>
<g opacity="0.3">
<g opacity="0.3">
<g opacity="0.3">
<g opacity="0.3">
<path opacity="0.3" d="M157.933 8.8995C156.408 6.05313 153.543 6.22266 151.286 8.96196C149.421 11.2194 142.301 19.3213 138.223 23.8898L134.243 20.6151C134.618 20.3653 147.61 5.67837 150.224 2.50185C153.588 -1.58479 158.317 0.0480837 157.933 8.8995Z" fill="white"/>
</g>
</g>
</g>
</g>
<path d="M167.383 49.2305L166.91 48.8379C166.481 46.625 166.16 44.6174 165.937 42.7882C166.33 44.7691 166.803 46.9106 167.383 49.2305Z" fill="#7F7F7F"/>
<path d="M157.933 10.2379C158.388 11.0767 158.719 12.1831 158.888 13.5572C157.96 14.3246 157.344 14.9938 157.344 14.9938C157.684 13.2271 157.871 11.6388 157.933 10.2379Z" fill="#7F7F7F"/>
<path d="M167.383 50.7742C166.696 50.7742 166.071 50.3102 165.893 49.6142C161.065 30.341 163.126 22.9529 164.358 18.5361C165.018 16.1716 165.295 15.1901 164.331 13.5037C164.01 12.9505 163.715 12.9148 163.573 12.8969C162.252 12.7452 159.736 14.6904 158.451 16.0556L154.81 19.9459L155.828 14.7172C157.13 7.9894 156.042 4.13475 154.471 3.39416C153.633 3.00155 152.464 3.55477 151.411 4.83073C150.037 6.49037 135.876 22.7209 135.091 23.2474C134.386 23.7203 133.431 23.5329 132.958 22.828C132.521 22.1766 132.655 21.3022 133.244 20.8025C134.261 19.8032 146.503 5.96392 149.037 2.88556C151.027 0.467479 153.615 -0.398032 155.783 0.62809C158.54 1.93082 159.807 5.79439 159.397 11.2819C160.762 10.3896 162.386 9.68473 163.93 9.86318C164.831 9.97026 166.098 10.4253 166.999 12.0047C168.596 14.8064 168.034 16.8319 167.32 19.3927C166.169 23.5151 164.242 30.4124 168.873 48.8915C169.078 49.7124 168.578 50.5511 167.757 50.7564C167.632 50.7564 167.508 50.7742 167.383 50.7742ZM133.387 20.6776C133.36 20.6955 133.315 20.7222 133.262 20.7668C133.306 20.7311 133.342 20.7044 133.387 20.6776Z" fill="#000072"/>
<g opacity="0.3">
<g opacity="0.3">
<g opacity="0.3">
<g opacity="0.3">
<path opacity="0.3" d="M157.969 126.859C145.656 131.972 128.756 134.301 116.853 134.301H93.2252C86.774 134.301 59.6308 134.301 43.2575 124.129C55.223 97.8241 76.3611 80.9511 100.203 80.9511C122.911 80.9511 142.97 96.5928 155.033 120.461C155.149 120.684 155.265 120.916 155.372 121.139C156.292 122.969 157.157 124.878 157.969 126.859Z" fill="#000072"/>
</g>
</g>
</g>
</g>
<path d="M37.0562 49.2305C44.5068 19.4908 36.5387 18.8751 40.0454 12.7273C42.401 8.58716 48.3793 14.9937 48.3793 14.9937C45.863 2.04675 51.3773 -0.701469 55.4818 3.84023C62.6825 11.7994 73.5951 17.8847 73.9698 18.1346C73.9698 18.1346 96.5624 14.1728 99.382 14.1104C101.586 14.0658 152.785 7.78411 166.919 45.4562L167.927 48.6594C173.031 65.0952 175.69 78.4348 175.467 86.8044C175.484 87.197 175.493 87.5896 175.493 87.9822C175.493 91.8012 174.655 95.9056 172.638 100.242C166.116 113.26 135.403 118.926 116.853 118.926H93.2252C83.9544 118.926 31.9613 118.926 30.605 88.7228C30.2303 80.38 32.8179 65.5503 36.619 50.9169L37.0562 49.2305Z" fill="#AD5832"/>
<g opacity="0.3">
<g opacity="0.3">
<g opacity="0.3">
<g opacity="0.3">
<path opacity="0.3" d="M175.493 87.5094C175.493 88.3927 175.449 89.285 175.351 90.1862C175.163 81.8613 172.567 69.4407 167.891 54.388L166.892 51.2204C160.601 19.0983 114.56 18.9734 100.14 20.2404C97.3655 20.4813 75.0228 24.2111 75.0228 24.2111C74.6569 23.9612 63.8693 17.9473 56.7489 10.0863C52.689 5.59811 48.6291 6.94545 51.1097 19.7407C51.1097 19.7407 42.5884 14.2978 41.482 18.8752C39.7688 25.9689 36.5298 18.4023 40.0276 12.2545C42.3832 8.11434 48.3615 14.5209 48.3615 14.5209C45.8631 1.57392 51.3684 -1.18322 55.4819 3.35848C62.6915 11.3176 73.5951 17.403 73.9699 17.6528C73.9699 17.6528 96.5624 13.6911 99.382 13.6286C101.595 13.584 152.785 7.30236 166.91 44.9744L167.918 48.1777C173.022 64.6224 175.681 77.9531 175.458 86.3226C175.485 86.7242 175.493 87.1079 175.493 87.5094Z" fill="white"/>
</g>
</g>
</g>
</g>
<g opacity="0.3">
<g opacity="0.3">
<g opacity="0.3">
<g opacity="0.3">
<path opacity="0.3" d="M112.124 75.5975C112.079 75.9811 112.034 76.3737 111.972 76.7842C110 90.6948 98.7841 100.001 87.0595 101.384C78.3598 102.41 60.9604 98.9573 55.687 80.2462C53.7864 73.5095 53.6794 66.5676 55.571 62.8379C58.8724 56.3421 68.6429 54.4058 72.9615 53.6563C73.4077 53.576 73.8984 53.5046 74.407 53.4511C83.3209 52.416 100.578 54.3701 106.484 59.5721C106.493 59.5632 113.516 62.7754 112.124 75.5975Z" fill="#000072"/>
</g>
</g>
</g>
</g>
<g opacity="0.3">
<g opacity="0.3">
<g opacity="0.3">
<g opacity="0.3">
<path opacity="0.3" d="M179.669 83.5297C178.956 86.7865 173.959 95.9949 160.423 97.2798C143.273 98.9037 131.388 75.9632 133.512 65.9697C135.555 56.342 148.904 54.6288 152.357 54.0577C162.984 52.2821 178.822 54.7537 179.839 59.0277C181.374 65.4164 181.008 77.3819 179.669 83.5297Z" fill="#000072"/>
</g>
</g>
</g>
</g>
<path d="M172.54 66.4783C177.706 88.7318 163.43 110.941 141.007 115.34C133.583 116.794 125.169 117.579 115.711 117.579C66.5283 117.579 51.9752 89.8472 51.3506 88.4463C51.3328 88.4106 51.3328 88.3927 51.3328 88.3927C48.8701 83.5298 47.496 78.0423 47.496 72.2425C47.496 52.1305 69.3925 34.7935 89.8614 35.8196C97.9008 36.2211 106.342 40.0223 113.043 44.903C119.467 49.5875 128.39 49.1057 134.065 43.5378C136.679 40.9681 139.472 39.0407 142.176 38.1842C149.84 35.775 159.29 37.4971 163.805 42.7705C173.887 54.611 171.978 64.0692 172.478 66.2017C172.495 66.2999 172.522 66.3891 172.54 66.4783Z" fill="#FCD2AC"/>
<g opacity="0.3">
<g opacity="0.3">
<g opacity="0.3">
<g opacity="0.3">
<path opacity="0.3" d="M175.493 85.3233C175.493 84.9307 175.484 84.5381 175.467 84.1455C175.52 82.2895 175.422 80.1837 175.19 77.846C174.797 80.496 173.977 83.2621 172.638 86.1352C166.116 99.1536 135.403 104.82 116.853 104.82H93.2252C62.4327 105.712 33.7369 93.6126 30.9352 77.4444C30.614 80.621 30.489 83.4495 30.5961 85.7694C31.9524 115.973 83.9455 115.973 93.2252 115.973H116.853C135.394 115.973 166.107 110.307 172.638 97.2887C173.629 95.1562 174.333 93.0861 174.797 91.0696C174.86 90.8911 174.922 90.7216 174.976 90.5431C175.333 88.7585 175.493 87.0097 175.493 85.3233Z" fill="#000072"/>
</g>
</g>
</g>
</g>
<path d="M167.276 178.37C167.276 178.37 170.827 177.094 172.611 180.619C174.244 183.849 170.059 190.086 165.777 193.28C162.957 195.377 162.796 198.322 160.958 201.775C158.763 205.915 155.194 207.744 151.161 205.781C147.378 203.943 147.744 199.392 147.931 196.367C148.127 193.048 148.716 190.907 147.797 187.382C146.7 183.171 145.049 173.596 149.644 172.053C157.585 169.385 155.935 184.777 155.935 184.777" fill="#FF8E06"/>
<path d="M148.181 189.31C148.1 188.703 147.984 188.069 147.797 187.373C146.887 183.92 145.62 176.835 147.743 173.561C147.877 174.159 148.011 174.703 148.136 175.194C149.296 179.619 148.555 182.305 148.306 186.472C148.261 187.346 148.199 188.31 148.181 189.31Z" fill="#EF8B01"/>
<g opacity="0.3">
<g opacity="0.3">
<g opacity="0.3">
<g opacity="0.3">
<path opacity="0.3" d="M165.777 193.28C162.957 195.377 162.787 198.322 160.958 201.775C158.763 205.915 155.203 207.744 151.161 205.781C147.378 203.934 147.752 199.392 147.931 196.367C148.038 194.654 148.243 193.262 148.288 191.835C148.591 194.44 149.591 196.939 152.348 198.286C157.407 200.749 161.886 198.455 164.634 193.262C166.945 188.926 169.943 190.175 165.777 193.28Z" fill="#000072"/>
</g>
</g>
</g>
</g>
<path d="M148.297 191.826C148.199 190.987 148.172 190.139 148.19 189.31C148.297 190.202 148.324 191.023 148.297 191.826Z" fill="#EF8B01"/>
<path d="M162.823 186.767C165.901 182.983 170.006 171.937 164.215 170.268C156.327 168.742 155.042 180.422 155.453 184.58" fill="#FF8E06"/>
<path d="M154.786 189.087L154.73 189.115C154.73 189.115 154.73 189.097 154.73 189.069L154.786 189.087Z" fill="#EF8B01"/>
<g opacity="0.3">
<g opacity="0.3">
<g opacity="0.3">
<g opacity="0.3">
<path opacity="0.3" d="M155.944 184.732L155.453 184.589C155.328 183.296 155.364 181.27 155.703 179.146C155.248 180.208 155.917 182.189 155.676 183.349C155.203 179.557 152.696 174.962 148.44 176.398C147.663 176.657 147.074 177.148 146.619 177.79C146.78 175.069 147.583 172.749 149.644 172.053C153.9 170.616 155.408 174.382 155.881 178.183C155.899 178.334 155.917 178.486 155.935 178.638C156.238 181.556 155.979 184.375 155.944 184.732Z" fill="white"/>
</g>
</g>
</g>
</g>
<g opacity="0.3">
<g opacity="0.3">
<g opacity="0.3">
<g opacity="0.3">
<path opacity="0.3" d="M171.755 186.338C171.728 185.839 171.612 185.375 171.398 184.955C169.613 181.431 166.062 182.716 166.062 182.716L165.402 183.09L164.902 183.367C165.205 182.742 165.491 182.082 165.759 181.404C165.884 180.619 165.946 179.851 165.928 179.129L166.624 178.736L167.284 178.361C167.284 178.361 170.836 177.085 172.62 180.61C173.352 182.091 172.888 184.188 171.755 186.338Z" fill="white"/>
</g>
</g>
</g>
</g>
<g opacity="0.3">
<g opacity="0.3">
<g opacity="0.3">
<g opacity="0.3">
<path opacity="0.3" d="M166.615 178.745C166.392 179.637 166.089 180.538 165.759 181.413C165.884 180.628 165.946 179.86 165.928 179.138C165.866 176.951 165.054 175.203 163.01 174.614C159.477 173.927 157.264 175.89 155.944 178.647C156.247 181.565 155.988 184.384 155.952 184.741L155.462 184.598C155.337 183.305 155.373 181.279 155.712 179.155C155.765 178.834 155.819 178.513 155.89 178.192C156.809 173.766 159.147 169.296 164.224 170.277C167.4 171.178 167.597 174.926 166.615 178.745Z" fill="white"/>
</g>
</g>
</g>
</g>
<path d="M155.944 184.732L155.453 184.589C155.328 183.296 155.364 181.27 155.703 179.146C155.774 178.977 155.854 178.807 155.935 178.638C156.238 181.556 155.979 184.375 155.944 184.732Z" fill="#EF8B01"/>
<path d="M155.99 184.742L155.944 184.77C155.944 184.77 155.944 184.76 155.944 184.732L155.99 184.742Z" fill="#EF8B01"/>
<path d="M165.759 181.404C165.669 181.957 165.553 182.519 165.402 183.081L164.902 183.358C165.205 182.742 165.491 182.082 165.759 181.404Z" fill="#EF8B01"/>
<path d="M166.758 176.925C166.999 176.835 167.124 176.809 167.302 176.764C167.463 176.728 167.624 176.693 167.784 176.666C168.105 176.612 168.436 176.586 168.766 176.577C169.426 176.568 170.122 176.666 170.791 176.898C171.469 177.112 172.085 177.514 172.62 177.96C172.87 178.201 173.129 178.442 173.334 178.709C173.441 178.843 173.548 178.977 173.646 179.111L173.896 179.53C173.977 179.682 174.066 179.789 174.146 179.967C174.226 180.146 174.316 180.324 174.369 180.503C174.494 180.86 174.574 181.225 174.619 181.573C174.708 182.278 174.664 182.939 174.566 183.563C174.36 184.804 173.932 185.874 173.441 186.891C172.433 188.899 171.13 190.63 169.658 192.218C168.917 193.012 168.123 193.753 167.258 194.44L166.928 194.699L166.687 194.895C166.526 195.011 166.392 195.145 166.258 195.279C166.116 195.404 166.009 195.564 165.875 195.698C165.759 195.859 165.634 196.002 165.536 196.171C164.652 197.465 164.117 199.428 163.216 201.409C162.332 203.363 161.092 205.478 159.013 206.932C157.987 207.655 156.729 208.181 155.417 208.351C154.106 208.529 152.776 208.351 151.607 207.949C151.304 207.86 151.027 207.735 150.751 207.61C150.608 207.548 150.474 207.494 150.331 207.423L149.894 207.182C149.751 207.102 149.608 207.021 149.466 206.923L149.055 206.62C148.779 206.423 148.538 206.183 148.297 205.942C147.333 204.96 146.726 203.702 146.423 202.515C145.816 200.115 146.039 197.911 146.173 195.903C146.253 194.851 146.369 193.833 146.459 192.879C146.539 191.924 146.575 191.032 146.503 190.148C146.477 189.711 146.414 189.274 146.334 188.837C146.289 188.614 146.253 188.399 146.2 188.176L146.03 187.463C145.781 186.436 145.566 185.419 145.406 184.375C145.076 182.305 144.862 180.199 144.969 177.995C145.031 176.898 145.165 175.774 145.531 174.614C145.718 174.034 145.95 173.445 146.307 172.874C146.664 172.303 147.128 171.749 147.717 171.303C148.002 171.08 148.332 170.902 148.663 170.741L149.171 170.545L149.626 170.42L150.081 170.304L150.572 170.233C150.893 170.17 151.241 170.179 151.589 170.179C153.008 170.188 154.543 171.027 155.328 172.089C156.176 173.141 156.577 174.284 156.845 175.372C157.095 176.47 157.202 177.549 157.211 178.611C157.22 180.735 156.925 182.805 156.238 184.795C156.185 184.937 156.033 185.018 155.89 184.964C155.792 184.928 155.721 184.848 155.703 184.75V184.741C155.381 182.725 155.123 180.744 154.748 178.861C154.552 177.924 154.338 177.005 154.043 176.166C153.766 175.328 153.392 174.551 152.955 174.052C152.856 173.909 152.731 173.828 152.624 173.712C152.499 173.641 152.401 173.543 152.276 173.498C152.169 173.427 152.035 173.409 151.911 173.365C151.848 173.347 151.768 173.347 151.705 173.338C151.634 173.329 151.571 173.311 151.491 173.32C151.331 173.329 151.188 173.311 151.009 173.356L150.751 173.391L150.474 173.472L150.197 173.552C150.135 173.579 150.072 173.614 150.01 173.632C149.894 173.695 149.769 173.757 149.671 173.846C149.457 174.016 149.269 174.239 149.1 174.524C148.93 174.819 148.796 175.167 148.68 175.551C148.457 176.318 148.359 177.21 148.324 178.12C148.27 179.95 148.493 181.868 148.841 183.76C149.02 184.705 149.225 185.651 149.457 186.588L149.644 187.338C149.716 187.605 149.769 187.882 149.823 188.158C149.93 188.712 150.01 189.274 150.055 189.836C150.162 190.969 150.117 192.093 150.046 193.137C149.965 194.181 149.858 195.172 149.805 196.127C149.68 198.116 149.591 200.008 150.01 201.525C150.206 202.283 150.536 202.89 150.983 203.354C151.099 203.47 151.206 203.586 151.348 203.675L151.545 203.827C151.616 203.872 151.696 203.907 151.768 203.952L151.991 204.086C152.071 204.13 152.169 204.166 152.259 204.202C152.437 204.282 152.624 204.371 152.803 204.416C154.275 204.916 155.667 204.728 156.898 203.863C157.514 203.434 158.076 202.837 158.576 202.158C159.067 201.48 159.486 200.704 159.879 199.856C160.271 199.018 160.61 198.116 161.003 197.144C161.387 196.18 161.851 195.127 162.538 194.11C162.698 193.851 162.903 193.61 163.091 193.369C163.305 193.137 163.501 192.896 163.724 192.682C163.947 192.468 164.179 192.254 164.42 192.067L164.768 191.79L165.036 191.585C165.75 191.032 166.446 190.407 167.088 189.738C168.382 188.408 169.533 186.9 170.363 185.312C171.193 183.751 171.648 181.993 171.059 181.154C170.711 180.521 170.283 180.092 169.729 179.878C169.453 179.771 169.132 179.7 168.792 179.691C168.623 179.691 168.444 179.691 168.266 179.718C168.177 179.726 168.096 179.744 168.007 179.753C167.936 179.762 167.82 179.798 167.82 179.789C167.026 180.074 166.142 179.664 165.857 178.861C165.545 178.094 165.955 177.21 166.758 176.925Z" fill="#000072"/>
<path d="M154.489 177.38C154.721 176.291 155.042 175.203 155.506 174.132C155.97 173.07 156.577 172.017 157.416 171.08C158.246 170.143 159.388 169.34 160.673 168.957C161.958 168.564 163.296 168.6 164.492 168.85L164.563 168.867L164.608 168.885C165.589 169.171 166.58 169.813 167.213 170.688C167.873 171.553 168.168 172.544 168.302 173.463C168.552 175.31 168.23 176.987 167.811 178.584C167.365 180.173 166.785 181.698 165.982 183.108C165.589 183.813 165.134 184.491 164.634 185.125C164.135 185.758 163.573 186.365 162.921 186.856C162.868 186.9 162.778 186.891 162.734 186.829C162.707 186.793 162.698 186.74 162.716 186.695C163.367 185.25 163.894 183.831 164.393 182.394C164.866 180.958 165.33 179.521 165.607 178.076C165.875 176.639 165.973 175.158 165.723 173.909C165.598 173.293 165.366 172.758 165.045 172.401C164.724 172.044 164.331 171.803 163.813 171.669L163.938 171.696C163.091 171.562 162.288 171.607 161.583 171.848C160.878 172.08 160.253 172.526 159.727 173.159C159.183 173.775 158.736 174.551 158.371 175.399C158.005 176.246 157.71 177.148 157.478 178.085V178.094C157.273 178.914 156.434 179.414 155.613 179.209C154.81 178.995 154.32 178.183 154.489 177.38Z" fill="#000072"/>
<path d="M81.9379 174.988C80.305 174.783 78.5294 174.444 76.611 173.962L81.9379 174.988Z" fill="#000072"/>
<path d="M81.9379 174.988C80.305 174.783 78.5294 174.444 76.611 173.962L81.9379 174.988Z" fill="#000072"/>
<path d="M92.7077 90.7661C98.1777 90.7661 102.612 84.4223 102.612 76.5967C102.612 68.7712 98.1777 62.4273 92.7077 62.4273C87.2377 62.4273 82.8034 68.7712 82.8034 76.5967C82.8034 84.4223 87.2377 90.7661 92.7077 90.7661Z" fill="#000072"/>
<path d="M94.6083 84.5024C96.067 84.5024 97.2495 82.2453 97.2495 79.461C97.2495 76.6767 96.067 74.4196 94.6083 74.4196C93.1496 74.4196 91.9672 76.6767 91.9672 79.461C91.9672 82.2453 93.1496 84.5024 94.6083 84.5024Z" fill="white"/>
<path d="M151.09 90.7661C156.56 90.7661 160.994 84.4223 160.994 76.5967C160.994 68.7712 156.56 62.4273 151.09 62.4273C145.62 62.4273 141.185 68.7712 141.185 76.5967C141.185 84.4223 145.62 90.7661 151.09 90.7661Z" fill="#000072"/>
<path d="M116.853 120.47H93.2252C79.8499 120.47 68.1879 119.185 58.5512 116.642C50.2084 114.447 43.5252 111.324 38.6802 107.38C32.6305 102.446 29.3915 96.2002 29.0614 88.8032C28.7045 80.8441 30.9709 66.5408 35.12 50.5423L35.5661 48.8469C40.1524 30.5552 38.8051 23.5686 38.0109 19.3928C37.4934 16.6981 37.1187 14.7529 38.7069 11.9601C39.6081 10.3808 40.8752 9.92569 41.7764 9.81862C43.3111 9.64016 44.935 10.3451 46.3002 11.2284C45.863 5.80336 47.0587 2.05578 49.7355 0.717364C51.8948 -0.362295 54.4735 0.413989 56.6239 2.79638C62.156 8.90849 69.9813 13.9766 74.2732 16.5107C78.2885 15.8058 96.6694 12.6204 99.3552 12.5668C99.4622 12.5668 99.6942 12.5401 100.051 12.5133C114.131 11.398 124.919 13.0844 131.486 14.6905C150.153 19.2589 162.555 29.422 168.364 44.912L168.391 44.9923L169.399 48.1956C174.592 64.9347 177.224 78.2743 177.01 86.7867C177.028 87.1525 177.037 87.5451 177.037 87.9823C177.037 92.2653 176.029 96.6107 174.039 100.894L174.021 100.938C170.086 108.79 158.611 113.439 149.68 115.955C139.624 118.784 127.355 120.47 116.853 120.47ZM42.2939 12.8791C42.2403 12.8791 42.1868 12.8791 42.1333 12.8881C41.9905 12.9059 41.6961 12.9416 41.3748 13.4948C40.3487 15.2972 40.545 16.3323 41.0268 18.8217C41.8745 23.2474 43.2932 30.6444 38.5463 49.6054L38.0912 51.3275C34.0135 67.0405 31.7828 81.0047 32.1308 88.6694C32.6662 100.653 41.821 109.067 59.3275 113.68C68.7054 116.152 80.1087 117.401 93.2163 117.401H116.853C135.18 117.401 165.125 111.735 171.246 99.582C173.04 95.7184 173.95 91.8191 173.95 87.9912C173.95 87.5808 173.941 87.2239 173.923 86.8937V86.8313V86.7688C174.137 78.5955 171.558 65.5683 166.446 49.1146L165.455 45.9559C153.749 14.8154 115.978 14.3425 100.274 15.5827C99.837 15.6184 99.5426 15.6363 99.4087 15.6452C97.4279 15.6898 83.2674 18.0544 74.2286 19.6426L73.6218 19.7497L73.1132 19.4106C73.0954 19.4017 73.0151 19.3482 72.8902 19.2768C68.4912 16.6892 60.2287 11.3712 54.3397 4.86646C53.1797 3.5905 51.9394 3.05514 51.1007 3.47451C49.9496 4.05449 48.3971 7.06147 49.8693 14.6994L50.8865 19.946L47.2371 16.0378C46.0236 14.7351 43.6502 12.8791 42.2939 12.8791Z" fill="#000072"/>
<path d="M183.729 51.5683C182.516 51.5148 180.963 51.488 177.929 50.9883C169.479 49.6053 157.059 46.1433 142.586 50.9437C135.707 53.228 130.076 60.2859 124.205 61.3477C112.133 63.5159 112.043 48.365 84.3559 48.374C72.7384 48.374 64.0387 50.6047 57.0343 51.8092C50.9757 52.8621 50.6367 52.0858 46.9248 52.2554C42.7935 52.4338 39.8133 54.5485 40.1256 59.0813C40.4825 64.2387 46.7195 64.8008 49.7444 71.7071C52.7692 78.6133 54.3129 101.536 82.2412 103.963C82.2412 103.963 98.3915 105.837 109.081 90.6234C115.764 81.1206 118.976 72.3941 124.16 72.0551C128.97 71.7428 130.862 77.0964 135.805 85.5196C148.734 107.55 173.968 96.682 179.803 87.4558C185.639 78.2296 180.74 66.0857 185.469 61.3209C190.394 56.3599 187.45 51.72 183.729 51.5683ZM112.124 73.9824C112.079 74.3661 112.034 74.7587 111.972 75.1691C110 89.0798 98.7841 98.3862 87.0595 99.7693C78.3598 100.795 60.9603 97.3423 55.687 78.6312C53.7864 71.8944 53.6793 64.9525 55.571 61.2228C58.8724 54.727 68.6429 52.7907 72.9615 52.0412C73.4076 51.9609 73.8984 51.8895 74.407 51.836C83.3209 50.801 100.578 52.755 106.484 57.957C106.493 57.9481 113.516 61.1603 112.124 73.9824ZM179.669 81.9058C178.955 85.1627 173.959 94.371 160.423 95.6559C143.273 97.2887 131.388 74.3393 133.512 64.3458C135.555 54.727 148.903 53.0138 152.357 52.4338C162.993 50.6582 178.822 53.1209 179.839 57.4038C181.373 63.8015 181.008 75.7669 179.669 81.9058Z" fill="#000072"/>
<g opacity="0.3">
<g opacity="0.3">
<g opacity="0.3">
<g opacity="0.3">
<path opacity="0.3" d="M138.214 88.2499C138.276 90.9714 136.831 95.0134 124.071 95.5398C121.368 95.6558 117.022 95.0401 115.684 94.4156C112.061 92.747 110.196 91.007 110.518 88.2142C110.687 86.6973 112.124 84.9306 113.391 84.2971C116.558 82.691 116.166 82.6999 117.326 81.0849C119.637 77.8638 121.323 77.3284 123.295 76.8733C130.023 75.3297 138.125 84.5023 138.214 88.2499Z" fill="#000072"/>
</g>
</g>
</g>
</g>
<path d="M136.661 85.1894C136.715 87.5718 135.439 91.0963 124.205 91.5782C121.823 91.6763 117.995 91.1409 116.817 90.6056C113.632 89.1512 111.99 87.6343 112.275 85.1983C112.427 83.8778 113.694 82.3252 114.801 81.772C117.584 80.3711 117.245 80.3711 118.272 78.9613C120.315 76.1417 121.796 75.6777 123.527 75.2762C129.452 73.9021 136.581 81.9148 136.661 85.1894Z" fill="#FF8E06"/>
<g opacity="0.3">
<g opacity="0.3">
<g opacity="0.3">
<g opacity="0.3">
<path opacity="0.3" d="M124.205 91.5692C121.823 91.6852 117.995 91.0784 116.817 90.4628C113.632 88.8031 111.99 87.081 112.275 84.306C112.32 83.8777 112.454 83.4405 112.641 83.0033C113.284 84.4399 114.711 85.5641 116.817 86.6527C117.995 87.2684 121.823 87.8751 124.205 87.7591C132.637 87.3487 135.457 84.9931 136.313 82.6999C136.528 83.2977 136.644 83.842 136.652 84.306C136.715 87.0186 135.439 91.0249 124.205 91.5692Z" fill="#000072"/>
</g>
</g>
</g>
</g>
<g opacity="0.35">
<g opacity="0.35">
<g opacity="0.35">
<g opacity="0.35">
<path opacity="0.35" d="M135.189 88.6693V88.5355C135.109 85.2608 127.739 76.4362 122.064 78.6133C120.806 79.0952 120.127 80.5942 119.28 81.8969C118.334 83.3602 114.658 83.6725 113.685 85.5017C113.498 85.8586 112.597 85.582 112.249 85.93C112.24 85.6891 112.249 85.4482 112.275 85.1894C112.427 83.8688 113.694 82.3163 114.801 81.7631C117.593 80.3622 117.245 80.3622 118.271 78.9524C120.315 76.1328 121.796 75.6688 123.527 75.2673C129.452 73.911 136.581 81.9148 136.652 85.1894C136.679 86.2423 136.447 87.5272 135.189 88.6693Z" fill="white"/>
</g>
</g>
</g>
</g>
<path d="M123.625 93.1219C121.234 93.1219 117.611 92.6579 116.175 91.9976C113.418 90.7395 110.303 88.8032 110.741 85.011C110.964 83.0659 112.632 81.1296 114.105 80.389C116.103 79.3897 116.148 79.3183 116.594 78.658C116.71 78.4885 116.844 78.2832 117.013 78.0513C119.315 74.8747 121.162 74.2323 123.17 73.7683C125.954 73.1259 129.211 74.1074 132.325 76.5344C135.189 78.7562 138.116 82.4323 138.178 85.1538C138.294 90.106 133.735 92.7025 124.25 93.1129C124.071 93.1129 123.857 93.1219 123.625 93.1219ZM124.928 76.6504C124.571 76.6504 124.223 76.6861 123.875 76.7664C122.51 77.0787 121.332 77.3553 119.521 79.8537C119.369 80.0589 119.253 80.2373 119.146 80.389C118.361 81.549 117.986 81.8881 115.497 83.1372C114.756 83.512 113.881 84.6541 113.801 85.3679C113.685 86.4119 113.864 87.563 117.46 89.2048C118.298 89.5884 121.858 90.1327 124.143 90.0435C131.504 89.7312 135.198 88.1072 135.127 85.2341C135.1 84.1188 133.315 81.1921 130.46 78.9703C129.264 78.0423 127.114 76.6504 124.928 76.6504Z" fill="#000072"/>
<path d="M111.214 124.227H54.179L54.7412 108.46L111.214 107.898L109.242 118.516L111.214 124.227Z" fill="white"/>
<path d="M114.078 124.021V174.025H49.8069V118.846L52.6711 127.046L56.0618 126.877L114.051 124.021H114.078Z" fill="#2E65FF"/>
<path d="M114.078 123.433V128.171H60.0503C54.42 128.171 49.8069 123.557 49.8069 117.927V115.001C49.8069 110.271 53.6437 106.435 58.3728 106.435H112.249C113.239 106.435 114.105 107.247 114.078 108.237C114.069 108.701 113.873 109.129 113.569 109.433C113.248 109.754 112.811 109.95 112.329 109.95H60.7373C58.0515 109.95 55.8476 112.154 55.8476 114.84V116.687C55.8476 119.382 58.0515 121.586 60.7462 121.586H112.231C113.248 121.586 114.078 122.406 114.078 123.433Z" fill="#2E65FF"/>
<path d="M78.6275 128.545C73.6575 129.09 68.6964 129.241 63.7264 129.322C62.4862 129.339 61.2459 129.357 59.9967 129.366C58.6137 129.375 57.2217 129.107 55.9279 128.599C53.3403 127.599 51.1542 125.619 49.905 123.147C49.2804 121.916 48.87 120.568 48.7272 119.194C48.6915 118.855 48.6915 118.507 48.6647 118.159C48.6469 117.802 48.6647 117.526 48.6558 117.204L48.6647 115.34C48.6558 115.045 48.6826 114.679 48.7004 114.331C48.7094 113.983 48.7807 113.635 48.8343 113.287C48.8789 112.939 48.9949 112.6 49.0752 112.261C49.1733 111.922 49.3072 111.601 49.4232 111.271C49.9675 109.977 50.8062 108.808 51.8413 107.862C52.8763 106.916 54.1166 106.194 55.455 105.774C55.7941 105.685 56.1331 105.587 56.4722 105.516C56.8202 105.471 57.1682 105.391 57.5162 105.373C57.8552 105.355 58.2389 105.328 58.5423 105.328H59.4703H66.9208H96.7229H111.624H112.088C112.195 105.328 112.525 105.328 112.748 105.373C113.239 105.462 113.703 105.676 114.087 105.98C114.47 106.292 114.792 106.693 114.979 107.175C115.175 107.648 115.22 108.201 115.131 108.692C114.961 109.7 114.212 110.575 113.248 110.905C113.007 110.985 112.757 111.039 112.507 111.057C112.445 111.066 112.382 111.066 112.32 111.066H112.204H111.972H111.044H103.593H73.7913H66.3408H62.62H60.7551C60.2644 111.066 59.7915 111.155 59.3453 111.333C58.4531 111.681 57.7035 112.395 57.302 113.269C57.0968 113.707 56.9808 114.171 56.9629 114.653L56.954 114.831V115.063V115.527V116.455V116.687L56.9629 116.865C56.9629 116.981 56.9719 117.106 56.9986 117.222C57.0254 117.463 57.0879 117.695 57.1682 117.918C57.3288 118.373 57.5697 118.793 57.882 119.159C58.5155 119.89 59.4167 120.363 60.3715 120.452L90.0665 120.47H104.968H112.534C113.533 120.568 114.461 121.202 114.908 122.103C115.024 122.326 115.104 122.567 115.157 122.817C115.175 122.942 115.202 123.067 115.211 123.192C115.22 123.317 115.229 123.459 115.229 123.513L115.238 124.441C115.256 125.681 115.264 126.921 115.264 128.162V129.339L114.078 129.348C112.864 129.357 111.651 129.348 110.428 129.331C109.215 129.304 108.001 129.277 106.779 129.215C105.565 129.161 104.352 129.081 103.129 128.974C101.916 128.858 100.702 128.733 99.4801 128.527C99.2748 128.492 99.1321 128.295 99.1678 128.09C99.1945 127.93 99.3195 127.805 99.4801 127.778C100.694 127.573 101.907 127.448 103.129 127.332C104.343 127.225 105.556 127.144 106.779 127.091C107.992 127.037 109.206 127.002 110.428 126.975C111.642 126.957 112.855 126.948 114.078 126.957L112.891 128.144C112.891 126.904 112.9 125.663 112.918 124.423L112.927 123.495V123.352C112.927 123.325 112.918 123.299 112.918 123.263C112.9 123.209 112.891 123.147 112.864 123.093C112.766 122.879 112.543 122.719 112.311 122.692C112.266 122.692 112.275 122.683 112.195 122.683H111.963H111.499L110.571 122.674H108.706H104.985H90.0844H75.1833H67.7328H64.012H62.1471H61.2191H60.7551L60.1841 122.647C58.6583 122.505 57.2128 121.746 56.2224 120.595C55.7227 120.024 55.3301 119.355 55.0802 118.632C54.9553 118.275 54.8572 117.9 54.8126 117.517C54.7769 117.329 54.7679 117.142 54.759 116.946L54.7501 116.66V116.428V115.5V115.036V114.795L54.759 114.51C54.7947 113.751 54.9821 112.993 55.3033 112.306C55.9457 110.923 57.1236 109.807 58.5423 109.245C59.2472 108.96 60.0235 108.817 60.773 108.817H62.62H66.3408H73.7913H103.593H111.044H111.972H112.204H112.32C112.338 108.817 112.347 108.817 112.365 108.817C112.418 108.817 112.481 108.799 112.525 108.781C112.739 108.71 112.909 108.505 112.945 108.291C112.98 108.067 112.909 107.88 112.704 107.702C112.606 107.63 112.481 107.568 112.365 107.55C112.329 107.532 111.927 107.541 111.633 107.541H96.7319H66.9297H59.4792H58.5512C58.23 107.541 57.998 107.568 57.7125 107.577C57.4448 107.595 57.1771 107.657 56.9094 107.684C56.6506 107.737 56.383 107.818 56.1242 107.88C55.0981 108.21 54.1433 108.763 53.3403 109.495C52.5462 110.227 51.8948 111.119 51.4844 112.118C51.3951 112.377 51.288 112.618 51.2167 112.886C51.1631 113.153 51.065 113.403 51.0382 113.671C51.0025 113.939 50.9401 114.206 50.9401 114.474C50.9311 114.742 50.9044 115 50.9133 115.331L50.9222 117.196C50.9311 117.499 50.9133 117.838 50.9401 118.106C50.9579 118.382 50.9668 118.659 50.9936 118.935C51.1096 120.033 51.4665 121.095 51.9751 122.067C53.0101 124.013 54.7501 125.565 56.7934 126.359C57.8106 126.752 58.8992 126.966 60.0056 126.984L63.7264 127.028C68.6964 127.1 73.6575 127.251 78.6275 127.805C78.8327 127.831 78.9844 128.01 78.9576 128.215C78.9398 128.394 78.797 128.527 78.6275 128.545Z" fill="#000072"/>
<path d="M115.613 175.56H48.2722V118.195C48.2722 117.347 48.9592 116.66 49.8069 116.66C50.6545 116.66 51.3416 117.347 51.3416 118.195V172.49H112.534V124.245C112.525 124.173 112.516 124.102 112.516 124.03C112.516 123.183 113.186 122.496 114.042 122.496H115.577L115.604 124.361V175.56H115.613Z" fill="#000072"/>
<path d="M110.723 122.701C110.223 122.701 109.768 122.362 109.643 121.862C108.626 117.874 108.626 113.662 109.643 109.674C109.795 109.076 110.402 108.719 110.999 108.871C111.597 109.022 111.954 109.629 111.802 110.227C110.874 113.85 110.874 117.686 111.802 121.309C111.954 121.907 111.597 122.514 110.999 122.665C110.901 122.692 110.812 122.701 110.723 122.701Z" fill="#000072"/>
<g opacity="0.3">
<g opacity="0.3">
<g opacity="0.3">
<g opacity="0.3">
<path opacity="0.3" d="M121.653 159.847C121.653 159.847 119.119 161.729 113.641 162.996C111.722 163.442 109.447 163.808 106.797 163.996C104.637 152.922 90.5037 144.374 73.3898 144.374C63.9852 144.374 55.4817 146.962 49.3696 151.129V119.551L52.2428 127.742L55.6334 127.573C56.49 128.313 57.4537 129.054 58.5512 129.786C61.8169 131.972 65.9303 132.462 69.6511 131.178C76.1023 128.947 86.7918 125.761 90.7357 127.546C94.9027 129.438 105.467 136.165 113.641 146.32C116.862 150.335 119.717 154.868 121.653 159.847Z" fill="#000072"/>
</g>
</g>
</g>
</g>
<path d="M89.6382 131.463C85.6944 129.678 75.0049 132.864 68.5537 135.095C64.8329 136.38 60.7195 135.889 57.4537 133.703C43.9 124.628 49.6373 114.394 49.7712 114.162C49.3607 114.528 27.1876 134.613 30.4355 165.593C31.0155 171.116 34.308 178.861 40.09 183.938C40.09 183.938 38.2965 173.445 38.8318 168.368C40.2327 174.507 44.4978 182.778 56.8648 187.275C56.8648 187.275 58.9349 177.995 59.4613 174.944L60.2466 175.024C63.8246 179.2 70.829 184.732 83.312 185.919C83.312 185.919 81.8665 176.023 81.9646 174.997C81.5274 174.944 81.0902 174.881 80.6262 174.801L80.7957 174.765L81.9646 174.988C97.3654 176.978 100.854 168.029 100.854 168.029C114.506 168.27 120.582 163.755 120.582 163.755C113.694 146.141 95.4381 134.104 89.6382 131.463ZM98.1863 168.662L98.8555 167.966C99.5336 168.002 100.185 168.02 100.827 168.029L98.1863 168.662Z" fill="#AD5832"/>
<g opacity="0.3">
<g opacity="0.3">
<g opacity="0.3">
<g opacity="0.3">
<path opacity="0.3" d="M49.102 114.786C49.1734 114.893 49.2448 115.009 49.3251 115.116C49.5571 114.536 49.7444 114.197 49.7712 114.162C49.7177 114.197 49.4857 114.403 49.102 114.786ZM114.738 153.128C111.544 154.305 100.203 166.61 84.8021 164.62C87.7556 172.419 77.4765 172.74 77.4765 172.74C64.9935 171.553 53.5991 163.683 53.5991 163.683C52.7693 168.038 55.0981 174.667 55.0981 174.667C42.7311 170.17 40.5361 165.86 39.1263 159.722C38.5999 164.808 38.3233 171.33 38.3233 171.33C34.4418 167.922 31.6847 163.317 30.1143 158.981C30.0964 161.122 30.1946 163.335 30.4355 165.602C31.0155 171.125 34.308 178.87 40.0811 183.947C40.0811 183.947 38.2876 173.463 38.8229 168.377C40.2238 174.516 44.4889 182.787 56.8559 187.284C56.8559 187.284 58.926 177.995 59.4524 174.953L60.2376 175.033C63.8157 179.209 70.8201 184.741 83.2942 185.919C83.2942 185.919 81.8487 176.023 81.9468 174.997C81.5096 174.944 81.0724 174.881 80.6084 174.801L80.7779 174.774L81.9468 174.997C97.3386 176.987 100.836 168.038 100.836 168.038L98.1863 168.671L98.8555 167.975C99.5336 168.011 100.185 168.029 100.827 168.038C114.479 168.278 120.556 163.764 120.556 163.764C119.075 159.936 117.049 156.384 114.738 153.128Z" fill="#000072"/>
</g>
</g>
</g>
</g>
<g opacity="0.3">
<g opacity="0.3">
<g opacity="0.3">
<g opacity="0.3">
<path opacity="0.3" d="M89.6383 130.571C85.6944 128.786 75.0049 131.972 68.5537 134.202C64.8329 135.487 60.7195 134.996 57.4538 132.81C43.9 123.736 49.6374 113.501 49.7712 113.269C49.5749 113.448 44.2034 118.302 39.1263 126.823C43.097 121.229 46.559 118.097 46.7196 117.954C46.5858 118.177 40.8574 128.411 54.4022 137.495C57.6679 139.681 61.7902 140.172 65.5021 138.887C71.9622 136.656 82.6428 133.471 86.5867 135.255C92.0921 137.763 108.813 148.729 116.371 164.888C119.217 163.853 120.565 162.853 120.565 162.853C113.694 145.249 95.4381 133.212 89.6383 130.571Z" fill="white"/>
</g>
</g>
</g>
</g>
<path d="M85.4446 165.78C86.9525 165.914 88.4426 166.083 89.9238 166.262L94.3763 166.601L96.5981 166.681L97.7045 166.735C98.0703 166.744 98.4451 166.735 98.8109 166.735L101.024 166.726C101.755 166.717 102.487 166.663 103.228 166.637C106.154 166.467 109.054 166.137 111.874 165.486C112.57 165.298 113.266 165.138 113.962 164.932C114.64 164.709 115.336 164.522 115.987 164.254C116.657 164.013 117.299 163.728 117.932 163.433C118.236 163.273 118.557 163.13 118.843 162.96C119.128 162.8 119.458 162.604 119.628 162.479L119.101 164.317C117.745 161.006 116.005 157.848 113.971 154.868L112.391 152.673L110.687 150.567L110.259 150.04L109.804 149.532L108.894 148.523C108.59 148.184 108.296 147.845 107.984 147.515L107.029 146.543C104.486 143.955 101.747 141.546 98.8555 139.342C98.1239 138.806 97.4011 138.244 96.6605 137.727C95.911 137.218 95.1794 136.674 94.412 136.201L93.2699 135.46C92.8862 135.22 92.5025 134.996 92.1188 134.764C91.7351 134.532 91.3515 134.3 90.9589 134.095C90.5663 133.89 90.1826 133.649 89.79 133.471L89.21 133.185L88.9155 133.042L88.7014 132.98C88.4605 132.864 88.0768 132.828 87.7377 132.757C86.9793 132.685 86.1584 132.668 85.3018 132.739C83.5976 132.864 81.8308 133.185 80.0731 133.569C76.5575 134.354 73.0419 135.443 69.5798 136.629C67.6168 137.307 65.4754 137.611 63.3696 137.459C61.2638 137.299 59.1937 136.701 57.3288 135.71L56.6418 135.318C56.4187 135.175 56.1957 135.032 55.9726 134.889C55.5443 134.595 55.1785 134.292 54.7769 133.997L54.188 133.551L53.8936 133.328L53.617 133.078L52.5016 132.079C51.065 130.687 49.7266 129.134 48.6916 127.332C47.6744 125.529 46.9427 123.495 46.7196 121.38C46.4966 119.266 46.7107 117.115 47.3799 115.099L47.5138 114.724L47.5852 114.536C47.6119 114.474 47.5316 114.661 47.5316 114.724C47.5138 114.804 47.487 114.929 47.487 115.027C47.4781 115.241 47.5138 115.473 47.5941 115.679C47.7547 116.098 48.0491 116.383 48.3971 116.553C48.7362 116.723 49.218 116.767 49.6374 116.615C49.8426 116.544 50.03 116.428 50.1549 116.303C50.262 116.205 50.1906 116.267 50.1906 116.267L50.1638 116.294L50.0478 116.41C49.7355 116.723 49.4233 117.044 49.1199 117.374C48.5042 118.025 47.9064 118.694 47.3175 119.382C46.1486 120.756 45.0332 122.174 43.9714 123.638C39.742 129.5 36.4227 136.04 34.3437 142.938C33.3176 146.391 32.6127 149.933 32.2023 153.511C31.8275 157.089 31.7829 160.703 32.0684 164.299C32.113 164.736 32.1309 165.218 32.1844 165.628C32.2379 166.048 32.2915 166.467 32.3718 166.895C32.5146 167.743 32.7376 168.582 32.9696 169.421C33.4604 171.098 34.1207 172.74 34.8969 174.31C36.4673 177.46 38.5642 180.36 41.1518 182.662L38.4393 184.179C38.2251 182.849 38.0378 181.556 37.8772 180.244C37.7076 178.932 37.5649 177.621 37.4489 176.3C37.3239 174.98 37.2347 173.65 37.1901 172.303C37.1544 170.955 37.1276 169.599 37.2882 168.162C37.3775 167.315 38.1359 166.708 38.9836 166.797C39.8223 166.887 40.4291 167.627 40.3488 168.466V168.484C40.2417 169.644 40.2685 170.911 40.3309 172.169C40.3934 173.427 40.5005 174.703 40.6432 175.979C40.7771 177.255 40.9377 178.531 41.125 179.807C41.3035 181.083 41.4998 182.368 41.714 183.617L42.4992 188.203L39.0014 185.134C36.0123 182.519 33.6656 179.307 31.89 175.836C31.0066 174.096 30.2571 172.285 29.686 170.402C29.4094 169.456 29.1507 168.502 28.9722 167.52C28.874 167.029 28.8027 166.539 28.7402 166.03C28.6688 165.53 28.651 165.066 28.5974 164.584C28.2495 160.783 28.2673 156.938 28.6331 153.128C29.0168 149.318 29.7931 145.552 30.8728 141.885C33.0767 134.559 36.5655 127.671 41.018 121.487C42.1333 119.944 43.3022 118.436 44.5425 116.99C45.1582 116.267 45.8006 115.545 46.452 114.849C46.7821 114.501 47.1122 114.153 47.4513 113.805L47.5762 113.68L47.6119 113.644L47.7101 113.546C47.8885 113.385 48.1116 113.243 48.3793 113.145C48.9147 112.948 49.5125 113.002 49.9586 113.225C50.4137 113.439 50.7974 113.823 51.0026 114.349C51.1007 114.608 51.1453 114.902 51.1364 115.179C51.1275 115.313 51.1097 115.456 51.0829 115.572C51.065 115.661 50.9847 115.875 51.0026 115.839L50.958 115.982L50.8598 116.259C50.3601 117.767 50.1995 119.39 50.3691 120.97C50.5297 122.558 51.0829 124.084 51.8859 125.512C52.7068 126.939 53.8133 128.215 55.0357 129.402L55.9994 130.258L56.2403 130.473L56.499 130.669L57.0166 131.061C57.3645 131.32 57.7125 131.606 58.0516 131.838L58.5513 132.168L59.0688 132.471C60.4786 133.23 62.0401 133.685 63.6373 133.819C65.2434 133.944 66.8495 133.729 68.3931 133.203C71.9533 131.998 75.5581 130.901 79.2878 130.08C81.1616 129.678 83.0533 129.339 85.052 129.197C86.0424 129.116 87.0864 129.134 88.175 129.25C88.746 129.357 89.2903 129.42 89.906 129.67L90.3521 129.83L90.6912 129.991L91.3604 130.321C91.8155 130.535 92.217 130.785 92.6453 131.017C93.0736 131.249 93.484 131.49 93.8945 131.74C94.3049 131.989 94.7154 132.23 95.1169 132.489L96.3125 133.274C97.9008 134.318 99.4355 135.443 100.935 136.603C103.933 138.931 106.761 141.465 109.402 144.196L110.393 145.222C110.714 145.57 111.026 145.936 111.339 146.284L112.284 147.355L112.757 147.89L113.203 148.452L114.979 150.692L116.63 153.029C118.762 156.197 120.591 159.588 122.019 163.166L122.474 164.308L121.493 164.995C121.047 165.307 120.734 165.477 120.359 165.691C119.994 165.896 119.637 166.057 119.271 166.244C118.539 166.574 117.808 166.895 117.058 167.154C116.317 167.449 115.559 167.645 114.81 167.886C114.051 168.091 113.293 168.27 112.534 168.457C109.474 169.117 106.369 169.349 103.299 169.331C102.532 169.314 101.764 169.331 100.997 169.296L98.7039 169.108C98.3202 169.073 97.9365 169.055 97.5617 169.01L96.4285 168.858L94.1621 168.519C92.6631 168.252 91.1819 167.904 89.7008 167.574C88.2374 167.163 86.783 166.744 85.3375 166.28C85.1947 166.235 85.1144 166.083 85.159 165.941C85.1947 165.816 85.3197 165.744 85.4446 165.753V165.78Z" fill="#000072"/>
<path d="M102.041 169.073C101.425 170.268 100.64 171.259 99.73 172.133C99.2928 172.588 98.7842 172.954 98.2934 173.347C98.0436 173.525 97.7759 173.686 97.5171 173.855C97.2584 174.025 96.9996 174.203 96.723 174.328C95.6344 174.917 94.5012 175.381 93.3323 175.702L92.4579 175.934C92.3151 175.97 92.1635 176.015 92.0207 176.05L91.5746 176.122C90.9857 176.211 90.3967 176.327 89.8078 176.38L88.0411 176.487C87.4522 176.532 86.8722 176.479 86.2923 176.461C85.1234 176.461 83.9813 176.264 82.8391 176.139C82.5536 176.113 82.2681 176.068 81.9915 175.997L81.1527 175.809C80.5906 175.684 80.0374 175.533 79.4931 175.381C78.4134 174.988 77.3516 174.56 76.3344 173.998C76.272 173.962 76.2452 173.882 76.2809 173.82C76.3076 173.775 76.3433 173.757 76.388 173.748H76.3969C77.5658 173.668 78.6811 173.73 79.7786 173.82C80.3318 173.828 80.885 173.855 81.4293 173.891L82.2413 173.953L82.6518 173.989L83.0622 173.998C84.1419 174.016 85.2304 174.096 86.2923 173.998L87.0953 173.953C87.363 173.944 87.6307 173.936 87.8894 173.891L89.4599 173.677C90.486 173.463 91.5032 173.248 92.4668 172.9C92.9665 172.767 93.4127 172.535 93.8856 172.329C94.3674 172.151 94.7778 171.874 95.224 171.642C95.4471 171.535 95.6434 171.384 95.8486 171.241C96.0538 171.098 96.259 170.964 96.4643 170.821C96.839 170.5 97.2405 170.215 97.5707 169.858C98.2666 169.189 98.8823 168.412 99.3195 167.636L99.3463 167.582C99.7657 166.842 100.703 166.583 101.443 167.003C102.148 167.44 102.407 168.341 102.041 169.073Z" fill="#000072"/>
<path d="M38.7872 160.685C39.1352 163.523 39.6973 166.298 40.5539 168.912C40.9822 170.224 41.4819 171.491 42.0529 172.731C42.6151 173.971 43.2843 175.167 44.0695 176.291C44.8458 177.415 45.7381 178.468 46.7374 179.414L47.1032 179.78L47.4959 180.119C47.7546 180.342 48.0134 180.574 48.2811 180.797C48.8343 181.208 49.3607 181.663 49.9407 182.037C52.216 183.617 54.7412 184.866 57.3912 185.83L55.3658 186.936L56.722 180.708L57.3734 177.594C57.5875 176.559 57.7928 175.515 57.9712 174.516V174.498C58.114 173.659 58.9081 173.097 59.7468 173.248C60.5856 173.391 61.1477 174.185 60.996 175.024C60.8087 176.122 60.5945 177.166 60.3804 178.218L59.7201 181.359L58.3549 187.614L57.9801 189.327L56.3294 188.73C53.4741 187.694 50.717 186.329 48.174 184.572C47.5226 184.152 46.9337 183.652 46.318 183.188C46.0236 182.939 45.7291 182.68 45.4436 182.43L45.0064 182.046L44.587 181.636C43.4627 180.574 42.4545 179.378 41.5176 178.129C40.5807 176.88 39.7419 175.551 39.0817 174.141C38.4124 172.731 37.9038 171.241 37.5648 169.724C37.2257 168.207 37.0562 166.663 37.0829 165.12C37.1008 163.576 37.2792 162.059 37.77 160.551C37.8592 160.275 38.1537 160.132 38.4303 160.221C38.6266 160.284 38.7604 160.462 38.7872 160.649V160.685Z" fill="#000072"/>
<path d="M57.4983 169.983C58.3192 170.973 59.2026 171.946 60.0681 172.865C60.5321 173.311 60.9425 173.784 61.4243 174.203L62.1025 174.864L62.8074 175.488C64.699 177.148 66.662 178.718 68.8303 180.03C69.9545 180.61 71.061 181.243 72.2566 181.681L73.14 182.037C73.4344 182.153 73.7289 182.287 74.0322 182.368L75.8614 182.939C76.1648 183.028 76.4682 183.144 76.7805 183.215L77.7174 183.421L79.5912 183.831C80.8582 184.045 82.1431 184.188 83.4101 184.366L81.7415 186.115L81.0099 180.922L80.6708 178.317C80.5637 177.433 80.4656 176.577 80.3853 175.64C80.3228 174.792 80.9563 174.052 81.804 173.989C82.6517 173.927 83.3923 174.56 83.4547 175.408V175.435C83.5172 176.229 83.6153 177.103 83.7224 177.951L84.0526 180.521L84.7753 185.678L85.0608 187.703L83.1157 187.427C81.7505 187.231 80.3853 187.079 79.029 186.856L77.0035 186.41L75.9953 186.187C75.6562 186.115 75.335 185.99 74.9959 185.892L73.0061 185.276C72.6671 185.187 72.3548 185.044 72.0335 184.911L71.0699 184.518C69.7582 184.045 68.5447 183.34 67.2866 182.742L65.4753 181.681L65.0202 181.413L64.5919 181.11L63.7353 180.503C63.1554 180.11 62.62 179.655 62.0935 179.173L61.3083 178.468L60.5856 177.692C60.3447 177.433 60.1038 177.175 59.8807 176.907L59.2382 176.068C58.81 175.515 58.4441 174.908 58.0783 174.31C57.3823 173.079 56.8023 171.812 56.5168 170.366C56.4633 170.081 56.6417 169.813 56.9272 169.751C57.1235 169.715 57.3109 169.786 57.4269 169.929L57.4983 169.983Z" fill="#000072"/>
<path d="M61.3262 113.171C65.0738 113.082 68.8214 113.037 72.569 113.002L83.8117 112.948L95.0544 113.002L100.676 113.064L106.297 113.171L100.676 113.278L95.0544 113.341L83.8117 113.394L72.569 113.341C68.8125 113.305 65.0649 113.261 61.3262 113.171Z" fill="#000072"/>
<path d="M61.3262 118.195C65.0738 118.106 68.8214 118.061 72.569 118.025L83.8117 117.972L95.0544 118.025L100.676 118.088L106.297 118.195L100.676 118.302L95.0544 118.364L83.8117 118.418L72.569 118.364C68.8125 118.329 65.0649 118.284 61.3262 118.195Z" fill="#000072"/>
<path d="M61.3262 115.679C65.0738 115.589 68.8214 115.545 72.569 115.509L83.8117 115.456L95.0544 115.509L100.676 115.572L106.297 115.679L100.676 115.786L95.0544 115.848L83.8117 115.902L72.569 115.848C68.8125 115.812 65.0649 115.777 61.3262 115.679Z" fill="#000072"/>
<path d="M94.9028 190.22C92.0654 186.588 87.4434 174.953 96.1877 172.428C102.791 170.518 105.218 183.313 104.361 188.337" fill="#FF8E06"/>
<path d="M103.843 180.351C103.843 180.351 107.761 174.462 112.632 178.138C116.291 180.904 113.801 188.051 110.268 193.664C108.287 196.814 107.288 200.481 107.323 204.202C107.35 207.646 106.422 211.438 102.264 211.679C97.4279 211.956 95.2864 208.797 94.2425 205.736C93.0914 202.381 91.0927 199.366 88.4248 197.028C84.7486 193.816 80.5014 188.846 82.2592 184.081C85.0966 176.425 91.3158 181.698 91.3158 181.698" fill="#FF8E06"/>
<g opacity="0.3">
<g opacity="0.3">
<g opacity="0.3">
<g opacity="0.3">
<g opacity="0.3">
<path opacity="0.3" d="M107.859 197.162C107.484 198.714 107.305 202.587 107.323 204.202C107.35 207.646 106.422 211.438 102.264 211.679C97.4279 211.956 95.2864 208.797 94.2425 205.736C93.0914 202.381 91.0927 199.366 88.4159 197.028C85.2572 194.262 93.4305 203.622 101.059 203.47C105.494 203.372 106.833 199.437 107.859 197.162Z" fill="#000072"/>
</g>
</g>
</g>
</g>
</g>
<path d="M107.859 199.437C108.037 198.661 108.269 197.902 108.546 197.162C108.403 197.965 108.18 198.732 107.859 199.437Z" fill="#EF8B01"/>
<g opacity="0.3">
<g opacity="0.3">
<g opacity="0.3">
<g opacity="0.3">
<g opacity="0.3">
<path opacity="0.3" d="M104.459 187.614C104.352 186.517 104.156 185.357 103.897 184.223C103.594 182.912 103.174 181.627 102.648 180.476C101.283 177.487 99.1767 175.443 96.2411 176.291C93.1539 177.183 91.7351 179.209 91.3068 181.627C90.6733 177.701 91.5388 173.766 96.1965 172.419C100.256 171.241 102.746 175.631 103.852 180.351C104.102 181.431 104.289 182.528 104.405 183.581C104.548 185.08 104.566 186.481 104.459 187.614Z" fill="white"/>
</g>
</g>
</g>
</g>
<g opacity="0.3">
<g opacity="0.3">
<g opacity="0.3">
<g opacity="0.3">
<path opacity="0.3" d="M91.3158 181.707C91.5299 183.001 91.9047 184.277 92.3597 185.473L91.3604 185.58C91.3604 185.58 85.1412 180.297 82.3037 187.953C82.2413 188.123 82.1877 188.283 82.1342 188.453C81.7327 187.016 81.7059 185.535 82.2502 184.072C84.9806 176.692 90.8696 181.332 91.289 181.671C91.3068 181.698 91.3158 181.707 91.3158 181.707Z" fill="white"/>
</g>
</g>
</g>
</g>
<g opacity="0.3">
<g opacity="0.3">
<g opacity="0.3">
<g opacity="0.3">
<path opacity="0.3" d="M114.238 184.366C113.971 183.42 113.471 182.617 112.686 182.02C108.84 179.12 105.592 182.162 104.397 183.581C104.557 185.08 104.575 186.481 104.459 187.614C104.352 186.517 104.156 185.357 103.897 184.223C103.594 182.912 103.174 181.627 102.648 180.476L103.843 180.342C103.843 180.342 107.76 174.453 112.632 178.129C114.354 179.441 114.711 181.725 114.238 184.366Z" fill="white"/>
</g>
</g>
</g>
</g>
</g>
<path d="M92.3597 185.473L91.3604 185.58C91.1373 184.25 91.0838 182.921 91.289 181.68C91.289 181.663 91.2979 181.636 91.2979 181.618C91.2979 181.645 91.3069 181.672 91.3158 181.698C91.5299 183.001 91.9047 184.277 92.3597 185.473Z" fill="#EF8B01"/>
<path d="M104.459 187.614C104.352 186.517 104.156 185.357 103.897 184.223C103.897 184.223 104.066 183.956 104.397 183.581C104.548 185.08 104.566 186.481 104.459 187.614Z" fill="#EF8B01"/>
<path d="M94.6976 190.371C93.9391 189.836 93.2878 189.167 92.7167 188.453C92.1367 187.739 91.646 186.963 91.2088 186.16C90.3522 184.536 89.7543 182.751 89.5223 180.833C89.4153 179.878 89.3974 178.879 89.558 177.871C89.7097 176.862 90.0309 175.836 90.5574 174.89C91.0838 173.945 91.8244 173.097 92.6899 172.454C93.5465 171.803 94.5013 171.348 95.4471 171.045C96.4197 170.714 97.6778 170.527 98.8556 170.822C100.042 171.107 101.051 171.767 101.818 172.517C103.362 174.034 104.182 175.827 104.78 177.594C105.066 178.486 105.298 179.378 105.45 180.289C105.61 181.19 105.726 182.1 105.744 183.01C105.762 183.92 105.699 184.839 105.53 185.749C105.351 186.651 105.093 187.561 104.611 188.391C104.539 188.524 104.37 188.569 104.236 188.489C104.165 188.453 104.12 188.382 104.102 188.31V188.301C103.71 186.561 103.308 184.964 102.933 183.358C102.737 182.564 102.559 181.761 102.344 180.985C102.121 180.208 101.88 179.441 101.604 178.7C101.06 177.228 100.372 175.809 99.4802 174.855C99.034 174.382 98.5611 174.061 98.0615 173.909C97.5529 173.784 97.0353 173.793 96.3751 174.007C94.9653 174.408 93.9124 175.256 93.3591 176.407C92.797 177.567 92.6989 179.031 92.8149 180.538C92.9219 182.055 93.2521 183.635 93.6447 185.223C94.0462 186.82 94.5102 188.417 95.0813 190.077V190.086C95.1259 190.229 95.0545 190.38 94.9117 190.425C94.8582 190.434 94.7689 190.416 94.6976 190.371Z" fill="#000072"/>
<path d="M101.684 213.231C98.5701 213.231 94.7243 211.929 92.7792 206.227C91.7084 203.104 89.8525 200.32 87.3987 198.179C81.4561 192.995 79.1808 187.935 80.8048 183.545C81.822 180.788 83.3924 179.111 85.4625 178.575C88.8799 177.683 92.1546 180.413 92.2973 180.529C92.9487 181.074 93.0201 182.046 92.4758 182.698C91.9226 183.349 90.9589 183.42 90.3076 182.876C89.7008 182.368 87.7824 181.136 86.2298 181.556C85.1859 181.832 84.3293 182.867 83.6779 184.625C82.1521 188.738 86.6135 193.441 89.4064 195.877C92.2617 198.366 94.4299 201.605 95.6702 205.246C96.8747 208.779 98.9448 210.341 102.148 210.153C103.049 210.1 105.806 209.948 105.762 204.228C105.726 200.151 106.833 196.216 108.947 192.861C112.142 187.784 114.363 181.404 111.687 179.378C110.714 178.638 109.777 178.361 108.813 178.522C106.699 178.87 105.119 181.19 105.102 181.217C104.629 181.921 103.674 182.109 102.969 181.636C102.264 181.163 102.077 180.217 102.541 179.512C102.63 179.369 104.861 176.077 108.287 175.497C110.107 175.185 111.874 175.667 113.543 176.934C118.075 180.36 115.488 188.257 111.553 194.503C109.75 197.367 108.813 200.722 108.84 204.211C108.903 211.732 104.789 213.089 102.335 213.231C102.13 213.223 101.916 213.231 101.684 213.231Z" fill="#000072"/>
<path d="M149.332 84.5024C150.79 84.5024 151.973 82.2453 151.973 79.461C151.973 76.6767 150.79 74.4196 149.332 74.4196C147.873 74.4196 146.691 76.6767 146.691 79.461C146.691 82.2453 147.873 84.5024 149.332 84.5024Z" fill="white"/>
</svg>
